<mxfile host="app.diagrams.net" modified="2023-11-19T13:37:45.706Z" agent="Mozilla/5.0 (Windows NT 10.0; Win64; x64; rv:109.0) Gecko/20100101 Firefox/119.0" etag="fwVbAnYOhPwrJz8S6o9L" version="21.3.5" type="device">
  <diagram name="Seite-1" id="E1tP4JxF9XZ57C3ktmub">
    <mxGraphModel dx="794" dy="386" grid="1" gridSize="10" guides="1" tooltips="1" connect="1" arrows="1" fold="1" page="1" pageScale="1" pageWidth="827" pageHeight="1169" math="0" shadow="0">
      <root>
        <mxCell id="0" />
        <mxCell id="1" parent="0" />
        <mxCell id="QzzDmp1graK9dcGjBhqi-9" style="rounded=0;orthogonalLoop=1;jettySize=auto;html=1;entryX=0.5;entryY=0;entryDx=0;entryDy=0;" edge="1" parent="1" source="QzzDmp1graK9dcGjBhqi-2" target="QzzDmp1graK9dcGjBhqi-5">
          <mxGeometry relative="1" as="geometry" />
        </mxCell>
        <mxCell id="QzzDmp1graK9dcGjBhqi-10" style="rounded=0;orthogonalLoop=1;jettySize=auto;html=1;entryX=0.5;entryY=0;entryDx=0;entryDy=0;" edge="1" parent="1" source="QzzDmp1graK9dcGjBhqi-2" target="QzzDmp1graK9dcGjBhqi-6">
          <mxGeometry relative="1" as="geometry" />
        </mxCell>
        <mxCell id="QzzDmp1graK9dcGjBhqi-11" style="rounded=0;orthogonalLoop=1;jettySize=auto;html=1;" edge="1" parent="1" source="QzzDmp1graK9dcGjBhqi-2" target="QzzDmp1graK9dcGjBhqi-7">
          <mxGeometry relative="1" as="geometry" />
        </mxCell>
        <mxCell id="QzzDmp1graK9dcGjBhqi-2" value="" style="rounded=0;whiteSpace=wrap;html=1;fillColor=#808080;" vertex="1" parent="1">
          <mxGeometry x="360" y="200" width="40" height="40" as="geometry" />
        </mxCell>
        <mxCell id="QzzDmp1graK9dcGjBhqi-3" value="" style="rounded=0;whiteSpace=wrap;html=1;fillColor=#808080;" vertex="1" parent="1">
          <mxGeometry x="360" y="360" width="40" height="40" as="geometry" />
        </mxCell>
        <mxCell id="QzzDmp1graK9dcGjBhqi-12" style="edgeStyle=orthogonalEdgeStyle;rounded=0;orthogonalLoop=1;jettySize=auto;html=1;entryX=0.5;entryY=0;entryDx=0;entryDy=0;" edge="1" parent="1" source="QzzDmp1graK9dcGjBhqi-4" target="QzzDmp1graK9dcGjBhqi-3">
          <mxGeometry relative="1" as="geometry" />
        </mxCell>
        <mxCell id="QzzDmp1graK9dcGjBhqi-4" value="" style="rounded=0;whiteSpace=wrap;html=1;fillColor=none;" vertex="1" parent="1">
          <mxGeometry x="280" y="270" width="200" height="60" as="geometry" />
        </mxCell>
        <mxCell id="QzzDmp1graK9dcGjBhqi-5" value="&lt;span lang=&quot;en&quot; class=&quot;ILfuVd&quot;&gt;&lt;/span&gt;" style="ellipse;whiteSpace=wrap;html=1;aspect=fixed;" vertex="1" parent="1">
          <mxGeometry x="280" y="280" width="40" height="40" as="geometry" />
        </mxCell>
        <mxCell id="QzzDmp1graK9dcGjBhqi-6" value="&lt;span role=&quot;presentation&quot; data-mathml=&quot;&lt;math xmlns=&amp;quot;http://www.w3.org/1998/Math/MathML&amp;quot;&gt;&lt;mi&gt;f&lt;/mi&gt;&lt;mo&gt;&amp;amp;#x2217;&lt;/mo&gt;&lt;mi&gt;g&lt;/mi&gt;&lt;/math&gt;&quot; style=&quot;position: relative;&quot; tabindex=&quot;0&quot; id=&quot;MathJax-Element-6-Frame&quot; class=&quot;MathJax&quot;&gt;&lt;/span&gt;" style="ellipse;whiteSpace=wrap;html=1;aspect=fixed;" vertex="1" parent="1">
          <mxGeometry x="320" y="280" width="40" height="40" as="geometry" />
        </mxCell>
        <mxCell id="QzzDmp1graK9dcGjBhqi-7" value="" style="ellipse;whiteSpace=wrap;html=1;aspect=fixed;" vertex="1" parent="1">
          <mxGeometry x="440" y="280" width="40" height="40" as="geometry" />
        </mxCell>
        <mxCell id="QzzDmp1graK9dcGjBhqi-8" value="..." style="ellipse;whiteSpace=wrap;html=1;aspect=fixed;strokeColor=none;" vertex="1" parent="1">
          <mxGeometry x="360" y="280" width="40" height="40" as="geometry" />
        </mxCell>
        <mxCell id="QzzDmp1graK9dcGjBhqi-14" value="" style="shape=image;imageAspect=0;aspect=fixed;verticalLabelPosition=bottom;verticalAlign=top;image=data:image/png,iVBORw0KGgoAAAANSUhEUgAAADoAAAA/CAYAAACxdtubAAAAAXNSR0IArs4c6QAAAARnQU1BAACxjwv8YQUAAAAJcEhZcwAAFiUAABYlAUlSJPAAAAXBSURBVGhD7ZtNaBtHFMdfu2QhdlulCH+lsokUXKfxR2sCPrg0hhYbbJMiiAkhhyonH6q7LjnJB93US8jBB0HAGOwcQkrADqbggxNDMaQuiqmgiSGRUnADkdNWhXUo/84ms/7Qzo5217ub1PUPHn6WZkf6a2fee/tWegcM+h/wLv974DkUetAIeI9uUenuTbqz8hP9+lc79X7+FX39ZZTq+LO+ogsNhI2bSERV/UPdY0p4EFcLGh/kH8EI1VaQ6lBMIretZRyLPmsNRujtS6gXCdw2BfEZPtYngglGmy+owl0x/9DLl9z1icP0ctAIRmh3J8W4K6aeQse46xNvyRltokgrd30iGKGfdtMn3BUTomMfctcn3pIzepxa27jrEwEJ7aZO2SZt+Igi3PWLGkL12vQ7Sp4/T+d1S0zQfGmLP+ch7x8jNyt3qzRPEyOd1NTURE2dIzQxX2Lv2AJeOAjYwFQ8DKW6ilEiiOcKcFqxTY1WzbPbRqf4KLtoKOTiiCjVcynoGF9g79yMpdCHmV6zyG1TEO5PY7nCB9tgJm5d6ypO6r/KMtL9ghOwbQq+uGqWaiF0FamYaJIqC/UhtSD6/MyspmLiOZjFUqt8lJyNhRT6QuI59lhLEvf4MQYWQqcwKppAaCq6knMo1ljLj9kKER9P7Aw856Ms0IqYS3ZBFRwrtg5cWePHcjyIulv04NoInTx1mW5IAlVb63HumflAkkS3Sjfo8qmTNHLtgXWgsQMXXIXNpVttahSJ2aI4UC2Oo0F0DMUgXrkairMJRFXRMTXM/tIFns/EERJNUtMUROI5mJoGqymwVCoY34vMYz7GQCsgF49IAo7MQhidsh2MdNgnupTFWHudqxfUWyTZ/K6wrOUwJBhHNMoiwg6VfBaDYUk3QmJqdBjpOfGKkgjdoZKfRnKg2UEw4KaE0Z9exmu5FgGuYRyLr56vYDndj7ApN9Y2mUADW0INKuu3kB6OOhYc6kthYcNi38dSWN1YQKovZH5Oagrq2seQXZILNHAk1EArLiE71o46J5++Gka4XvB4QxvaHAUcVqz0JDB5v2xLoIEroQZa+T4mEz2ulptzU9E8kMT07n3vgH0J3aaSx3RyAM1uUkFNUxEdTuPWujuBBt4INais41Z62F3uqzYWyHoSWSzVKrls4q1QA1ayLWXH0F7nIk2ozRhITsPlCrXEH6EG5btIfXZULEhgRz9O4k6ZH+sx/gjdz571eMkaeLxHdYHukr7ZvAlCBp4I9TfNsLRyxnnerGZfQl0VDq7NWSVUjSuhrkpBlVVADYLH61nF5LAyciPYgVAN5fvuivv/SK27j8u1PVcvixgXnVEljtetMbdXL/YES4QygXNpDAtux9sx0/WoZR9qCLld79D99ahcsKXQjalR1x2G8GDWXNk8zqBXOF7QSmFpKjsoa2nKLIT4jLnZZiH0HpItoklqmKy5bdlKacD46yvvKqya1DZM3/d8FgOx0LUr6BBNIDE1msCsrJphK0R0nG6yRr1WnBV+m0Vue9szOh60O1WKJmbpUeE6XYiweGxBefMP7pn5rfiEe2bUyAW6XnhEs4koe6V9wAVXYXPpql1I1ujVGOy/U68HxyS67ORc20uXIb/3YuRGPtgGty/VC+fRzdG9l5o5V0Fv5iEfvIOlUOu7abtzo328vZtmnXNDfRmsCJaYRKhOBfnJBM6caERjYyNOsOI65+rrbDU6/x1XUHWrxBZaIYdvz55+9d5On/0Gqem85QmoIdQrLKoiwwR7ymsCurVfoqfPuCtifY3y3PWLYISWN8k6uQRDMEKfFOkpd8X8QvmfuesTgZ3RP7n7pghGaOkpybYo26S05vMmDSgYvXkOhXrKkSPEKiwJij7EV4IROnSRzrGreEtC5+jiEPf9ghcOvqOtZNAvaJEo4X5kRMWpxwT8u5e/6dmPP9D3+d9f/fdeLLjfvRz+CO9gQfQvYt4Jhy/G85QAAAAASUVORK5CYII=;" vertex="1" parent="1">
          <mxGeometry x="291.19" y="290.43" width="17.62" height="19.14" as="geometry" />
        </mxCell>
        <mxCell id="QzzDmp1graK9dcGjBhqi-30" style="edgeStyle=orthogonalEdgeStyle;rounded=0;orthogonalLoop=1;jettySize=auto;html=1;entryX=0.5;entryY=0;entryDx=0;entryDy=0;" edge="1" parent="1" source="QzzDmp1graK9dcGjBhqi-18" target="QzzDmp1graK9dcGjBhqi-29">
          <mxGeometry relative="1" as="geometry" />
        </mxCell>
        <mxCell id="QzzDmp1graK9dcGjBhqi-18" value="" style="rounded=0;whiteSpace=wrap;html=1;fillColor=none;" vertex="1" parent="1">
          <mxGeometry x="280" y="430" width="200" height="60" as="geometry" />
        </mxCell>
        <mxCell id="QzzDmp1graK9dcGjBhqi-19" value="&lt;span lang=&quot;en&quot; class=&quot;ILfuVd&quot;&gt;&lt;/span&gt;" style="ellipse;whiteSpace=wrap;html=1;aspect=fixed;" vertex="1" parent="1">
          <mxGeometry x="280" y="440" width="40" height="40" as="geometry" />
        </mxCell>
        <mxCell id="QzzDmp1graK9dcGjBhqi-20" value="&lt;span role=&quot;presentation&quot; data-mathml=&quot;&lt;math xmlns=&amp;quot;http://www.w3.org/1998/Math/MathML&amp;quot;&gt;&lt;mi&gt;f&lt;/mi&gt;&lt;mo&gt;&amp;amp;#x2217;&lt;/mo&gt;&lt;mi&gt;g&lt;/mi&gt;&lt;/math&gt;&quot; style=&quot;position: relative;&quot; tabindex=&quot;0&quot; id=&quot;MathJax-Element-6-Frame&quot; class=&quot;MathJax&quot;&gt;&lt;/span&gt;" style="ellipse;whiteSpace=wrap;html=1;aspect=fixed;" vertex="1" parent="1">
          <mxGeometry x="320" y="440" width="40" height="40" as="geometry" />
        </mxCell>
        <mxCell id="QzzDmp1graK9dcGjBhqi-21" value="" style="ellipse;whiteSpace=wrap;html=1;aspect=fixed;" vertex="1" parent="1">
          <mxGeometry x="440" y="440" width="40" height="40" as="geometry" />
        </mxCell>
        <mxCell id="QzzDmp1graK9dcGjBhqi-22" value="..." style="ellipse;whiteSpace=wrap;html=1;aspect=fixed;strokeColor=none;" vertex="1" parent="1">
          <mxGeometry x="360" y="440" width="40" height="40" as="geometry" />
        </mxCell>
        <mxCell id="QzzDmp1graK9dcGjBhqi-26" style="rounded=0;orthogonalLoop=1;jettySize=auto;html=1;entryX=0.5;entryY=0;entryDx=0;entryDy=0;" edge="1" parent="1" source="QzzDmp1graK9dcGjBhqi-3">
          <mxGeometry relative="1" as="geometry">
            <mxPoint x="300" y="445" as="targetPoint" />
          </mxGeometry>
        </mxCell>
        <mxCell id="QzzDmp1graK9dcGjBhqi-27" style="rounded=0;orthogonalLoop=1;jettySize=auto;html=1;entryX=0.5;entryY=0;entryDx=0;entryDy=0;" edge="1" parent="1" source="QzzDmp1graK9dcGjBhqi-3">
          <mxGeometry relative="1" as="geometry">
            <mxPoint x="340" y="445" as="targetPoint" />
          </mxGeometry>
        </mxCell>
        <mxCell id="QzzDmp1graK9dcGjBhqi-28" style="rounded=0;orthogonalLoop=1;jettySize=auto;html=1;entryX=0.5;entryY=0;entryDx=0;entryDy=0;" edge="1" parent="1" source="QzzDmp1graK9dcGjBhqi-3">
          <mxGeometry relative="1" as="geometry">
            <mxPoint x="460" y="445" as="targetPoint" />
          </mxGeometry>
        </mxCell>
        <mxCell id="QzzDmp1graK9dcGjBhqi-29" value="" style="rounded=0;whiteSpace=wrap;html=1;fillColor=#808080;" vertex="1" parent="1">
          <mxGeometry x="360" y="520" width="40" height="40" as="geometry" />
        </mxCell>
        <mxCell id="QzzDmp1graK9dcGjBhqi-31" value="" style="shape=image;imageAspect=0;aspect=fixed;verticalLabelPosition=bottom;verticalAlign=top;image=data:image/png,iVBORw0KGgoAAAANSUhEUgAAADoAAAA/CAYAAACxdtubAAAAAXNSR0IArs4c6QAAAARnQU1BAACxjwv8YQUAAAAJcEhZcwAAFiUAABYlAUlSJPAAAAXBSURBVGhD7ZtNaBtHFMdfu2QhdlulCH+lsokUXKfxR2sCPrg0hhYbbJMiiAkhhyonH6q7LjnJB93US8jBB0HAGOwcQkrADqbggxNDMaQuiqmgiSGRUnADkdNWhXUo/84ms/7Qzo5217ub1PUPHn6WZkf6a2fee/tWegcM+h/wLv974DkUetAIeI9uUenuTbqz8hP9+lc79X7+FX39ZZTq+LO+ogsNhI2bSERV/UPdY0p4EFcLGh/kH8EI1VaQ6lBMIretZRyLPmsNRujtS6gXCdw2BfEZPtYngglGmy+owl0x/9DLl9z1icP0ctAIRmh3J8W4K6aeQse46xNvyRltokgrd30iGKGfdtMn3BUTomMfctcn3pIzepxa27jrEwEJ7aZO2SZt+Igi3PWLGkL12vQ7Sp4/T+d1S0zQfGmLP+ch7x8jNyt3qzRPEyOd1NTURE2dIzQxX2Lv2AJeOAjYwFQ8DKW6ilEiiOcKcFqxTY1WzbPbRqf4KLtoKOTiiCjVcynoGF9g79yMpdCHmV6zyG1TEO5PY7nCB9tgJm5d6ypO6r/KMtL9ghOwbQq+uGqWaiF0FamYaJIqC/UhtSD6/MyspmLiOZjFUqt8lJyNhRT6QuI59lhLEvf4MQYWQqcwKppAaCq6knMo1ljLj9kKER9P7Aw856Ms0IqYS3ZBFRwrtg5cWePHcjyIulv04NoInTx1mW5IAlVb63HumflAkkS3Sjfo8qmTNHLtgXWgsQMXXIXNpVttahSJ2aI4UC2Oo0F0DMUgXrkairMJRFXRMTXM/tIFns/EERJNUtMUROI5mJoGqymwVCoY34vMYz7GQCsgF49IAo7MQhidsh2MdNgnupTFWHudqxfUWyTZ/K6wrOUwJBhHNMoiwg6VfBaDYUk3QmJqdBjpOfGKkgjdoZKfRnKg2UEw4KaE0Z9exmu5FgGuYRyLr56vYDndj7ApN9Y2mUADW0INKuu3kB6OOhYc6kthYcNi38dSWN1YQKovZH5Oagrq2seQXZILNHAk1EArLiE71o46J5++Gka4XvB4QxvaHAUcVqz0JDB5v2xLoIEroQZa+T4mEz2ulptzU9E8kMT07n3vgH0J3aaSx3RyAM1uUkFNUxEdTuPWujuBBt4INais41Z62F3uqzYWyHoSWSzVKrls4q1QA1ayLWXH0F7nIk2ozRhITsPlCrXEH6EG5btIfXZULEhgRz9O4k6ZH+sx/gjdz571eMkaeLxHdYHukr7ZvAlCBp4I9TfNsLRyxnnerGZfQl0VDq7NWSVUjSuhrkpBlVVADYLH61nF5LAyciPYgVAN5fvuivv/SK27j8u1PVcvixgXnVEljtetMbdXL/YES4QygXNpDAtux9sx0/WoZR9qCLld79D99ahcsKXQjalR1x2G8GDWXNk8zqBXOF7QSmFpKjsoa2nKLIT4jLnZZiH0HpItoklqmKy5bdlKacD46yvvKqya1DZM3/d8FgOx0LUr6BBNIDE1msCsrJphK0R0nG6yRr1WnBV+m0Vue9szOh60O1WKJmbpUeE6XYiweGxBefMP7pn5rfiEe2bUyAW6XnhEs4koe6V9wAVXYXPpql1I1ujVGOy/U68HxyS67ORc20uXIb/3YuRGPtgGty/VC+fRzdG9l5o5V0Fv5iEfvIOlUOu7abtzo328vZtmnXNDfRmsCJaYRKhOBfnJBM6caERjYyNOsOI65+rrbDU6/x1XUHWrxBZaIYdvz55+9d5On/0Gqem85QmoIdQrLKoiwwR7ymsCurVfoqfPuCtifY3y3PWLYISWN8k6uQRDMEKfFOkpd8X8QvmfuesTgZ3RP7n7pghGaOkpybYo26S05vMmDSgYvXkOhXrKkSPEKiwJij7EV4IROnSRzrGreEtC5+jiEPf9ghcOvqOtZNAvaJEo4X5kRMWpxwT8u5e/6dmPP9D3+d9f/fdeLLjfvRz+CO9gQfQvYt4Jhy/G85QAAAAASUVORK5CYII=;" vertex="1" parent="1">
          <mxGeometry x="331.19" y="290.43" width="17.62" height="19.14" as="geometry" />
        </mxCell>
        <mxCell id="QzzDmp1graK9dcGjBhqi-32" value="" style="shape=image;imageAspect=0;aspect=fixed;verticalLabelPosition=bottom;verticalAlign=top;image=data:image/png,iVBORw0KGgoAAAANSUhEUgAAADoAAAA/CAYAAACxdtubAAAAAXNSR0IArs4c6QAAAARnQU1BAACxjwv8YQUAAAAJcEhZcwAAFiUAABYlAUlSJPAAAAXBSURBVGhD7ZtNaBtHFMdfu2QhdlulCH+lsokUXKfxR2sCPrg0hhYbbJMiiAkhhyonH6q7LjnJB93US8jBB0HAGOwcQkrADqbggxNDMaQuiqmgiSGRUnADkdNWhXUo/84ms/7Qzo5217ub1PUPHn6WZkf6a2fee/tWegcM+h/wLv974DkUetAIeI9uUenuTbqz8hP9+lc79X7+FX39ZZTq+LO+ogsNhI2bSERV/UPdY0p4EFcLGh/kH8EI1VaQ6lBMIretZRyLPmsNRujtS6gXCdw2BfEZPtYngglGmy+owl0x/9DLl9z1icP0ctAIRmh3J8W4K6aeQse46xNvyRltokgrd30iGKGfdtMn3BUTomMfctcn3pIzepxa27jrEwEJ7aZO2SZt+Igi3PWLGkL12vQ7Sp4/T+d1S0zQfGmLP+ch7x8jNyt3qzRPEyOd1NTURE2dIzQxX2Lv2AJeOAjYwFQ8DKW6ilEiiOcKcFqxTY1WzbPbRqf4KLtoKOTiiCjVcynoGF9g79yMpdCHmV6zyG1TEO5PY7nCB9tgJm5d6ypO6r/KMtL9ghOwbQq+uGqWaiF0FamYaJIqC/UhtSD6/MyspmLiOZjFUqt8lJyNhRT6QuI59lhLEvf4MQYWQqcwKppAaCq6knMo1ljLj9kKER9P7Aw856Ms0IqYS3ZBFRwrtg5cWePHcjyIulv04NoInTx1mW5IAlVb63HumflAkkS3Sjfo8qmTNHLtgXWgsQMXXIXNpVttahSJ2aI4UC2Oo0F0DMUgXrkairMJRFXRMTXM/tIFns/EERJNUtMUROI5mJoGqymwVCoY34vMYz7GQCsgF49IAo7MQhidsh2MdNgnupTFWHudqxfUWyTZ/K6wrOUwJBhHNMoiwg6VfBaDYUk3QmJqdBjpOfGKkgjdoZKfRnKg2UEw4KaE0Z9exmu5FgGuYRyLr56vYDndj7ApN9Y2mUADW0INKuu3kB6OOhYc6kthYcNi38dSWN1YQKovZH5Oagrq2seQXZILNHAk1EArLiE71o46J5++Gka4XvB4QxvaHAUcVqz0JDB5v2xLoIEroQZa+T4mEz2ulptzU9E8kMT07n3vgH0J3aaSx3RyAM1uUkFNUxEdTuPWujuBBt4INais41Z62F3uqzYWyHoSWSzVKrls4q1QA1ayLWXH0F7nIk2ozRhITsPlCrXEH6EG5btIfXZULEhgRz9O4k6ZH+sx/gjdz571eMkaeLxHdYHukr7ZvAlCBp4I9TfNsLRyxnnerGZfQl0VDq7NWSVUjSuhrkpBlVVADYLH61nF5LAyciPYgVAN5fvuivv/SK27j8u1PVcvixgXnVEljtetMbdXL/YES4QygXNpDAtux9sx0/WoZR9qCLld79D99ahcsKXQjalR1x2G8GDWXNk8zqBXOF7QSmFpKjsoa2nKLIT4jLnZZiH0HpItoklqmKy5bdlKacD46yvvKqya1DZM3/d8FgOx0LUr6BBNIDE1msCsrJphK0R0nG6yRr1WnBV+m0Vue9szOh60O1WKJmbpUeE6XYiweGxBefMP7pn5rfiEe2bUyAW6XnhEs4koe6V9wAVXYXPpql1I1ujVGOy/U68HxyS67ORc20uXIb/3YuRGPtgGty/VC+fRzdG9l5o5V0Fv5iEfvIOlUOu7abtzo328vZtmnXNDfRmsCJaYRKhOBfnJBM6caERjYyNOsOI65+rrbDU6/x1XUHWrxBZaIYdvz55+9d5On/0Gqem85QmoIdQrLKoiwwR7ymsCurVfoqfPuCtifY3y3PWLYISWN8k6uQRDMEKfFOkpd8X8QvmfuesTgZ3RP7n7pghGaOkpybYo26S05vMmDSgYvXkOhXrKkSPEKiwJij7EV4IROnSRzrGreEtC5+jiEPf9ghcOvqOtZNAvaJEo4X5kRMWpxwT8u5e/6dmPP9D3+d9f/fdeLLjfvRz+CO9gQfQvYt4Jhy/G85QAAAAASUVORK5CYII=;" vertex="1" parent="1">
          <mxGeometry x="451.19" y="290.43" width="17.62" height="19.14" as="geometry" />
        </mxCell>
        <mxCell id="QzzDmp1graK9dcGjBhqi-35" value="" style="shape=image;imageAspect=0;aspect=fixed;verticalLabelPosition=bottom;verticalAlign=top;image=data:image/png,iVBORw0KGgoAAAANSUhEUgAAADoAAAA/CAYAAACxdtubAAAAAXNSR0IArs4c6QAAAARnQU1BAACxjwv8YQUAAAAJcEhZcwAAFiUAABYlAUlSJPAAAAXBSURBVGhD7ZtNaBtHFMdfu2QhdlulCH+lsokUXKfxR2sCPrg0hhYbbJMiiAkhhyonH6q7LjnJB93US8jBB0HAGOwcQkrADqbggxNDMaQuiqmgiSGRUnADkdNWhXUo/84ms/7Qzo5217ub1PUPHn6WZkf6a2fee/tWegcM+h/wLv974DkUetAIeI9uUenuTbqz8hP9+lc79X7+FX39ZZTq+LO+ogsNhI2bSERV/UPdY0p4EFcLGh/kH8EI1VaQ6lBMIretZRyLPmsNRujtS6gXCdw2BfEZPtYngglGmy+owl0x/9DLl9z1icP0ctAIRmh3J8W4K6aeQse46xNvyRltokgrd30iGKGfdtMn3BUTomMfctcn3pIzepxa27jrEwEJ7aZO2SZt+Igi3PWLGkL12vQ7Sp4/T+d1S0zQfGmLP+ch7x8jNyt3qzRPEyOd1NTURE2dIzQxX2Lv2AJeOAjYwFQ8DKW6ilEiiOcKcFqxTY1WzbPbRqf4KLtoKOTiiCjVcynoGF9g79yMpdCHmV6zyG1TEO5PY7nCB9tgJm5d6ypO6r/KMtL9ghOwbQq+uGqWaiF0FamYaJIqC/UhtSD6/MyspmLiOZjFUqt8lJyNhRT6QuI59lhLEvf4MQYWQqcwKppAaCq6knMo1ljLj9kKER9P7Aw856Ms0IqYS3ZBFRwrtg5cWePHcjyIulv04NoInTx1mW5IAlVb63HumflAkkS3Sjfo8qmTNHLtgXWgsQMXXIXNpVttahSJ2aI4UC2Oo0F0DMUgXrkairMJRFXRMTXM/tIFns/EERJNUtMUROI5mJoGqymwVCoY34vMYz7GQCsgF49IAo7MQhidsh2MdNgnupTFWHudqxfUWyTZ/K6wrOUwJBhHNMoiwg6VfBaDYUk3QmJqdBjpOfGKkgjdoZKfRnKg2UEw4KaE0Z9exmu5FgGuYRyLr56vYDndj7ApN9Y2mUADW0INKuu3kB6OOhYc6kthYcNi38dSWN1YQKovZH5Oagrq2seQXZILNHAk1EArLiE71o46J5++Gka4XvB4QxvaHAUcVqz0JDB5v2xLoIEroQZa+T4mEz2ulptzU9E8kMT07n3vgH0J3aaSx3RyAM1uUkFNUxEdTuPWujuBBt4INais41Z62F3uqzYWyHoSWSzVKrls4q1QA1ayLWXH0F7nIk2ozRhITsPlCrXEH6EG5btIfXZULEhgRz9O4k6ZH+sx/gjdz571eMkaeLxHdYHukr7ZvAlCBp4I9TfNsLRyxnnerGZfQl0VDq7NWSVUjSuhrkpBlVVADYLH61nF5LAyciPYgVAN5fvuivv/SK27j8u1PVcvixgXnVEljtetMbdXL/YES4QygXNpDAtux9sx0/WoZR9qCLld79D99ahcsKXQjalR1x2G8GDWXNk8zqBXOF7QSmFpKjsoa2nKLIT4jLnZZiH0HpItoklqmKy5bdlKacD46yvvKqya1DZM3/d8FgOx0LUr6BBNIDE1msCsrJphK0R0nG6yRr1WnBV+m0Vue9szOh60O1WKJmbpUeE6XYiweGxBefMP7pn5rfiEe2bUyAW6XnhEs4koe6V9wAVXYXPpql1I1ujVGOy/U68HxyS67ORc20uXIb/3YuRGPtgGty/VC+fRzdG9l5o5V0Fv5iEfvIOlUOu7abtzo328vZtmnXNDfRmsCJaYRKhOBfnJBM6caERjYyNOsOI65+rrbDU6/x1XUHWrxBZaIYdvz55+9d5On/0Gqem85QmoIdQrLKoiwwR7ymsCurVfoqfPuCtifY3y3PWLYISWN8k6uQRDMEKfFOkpd8X8QvmfuesTgZ3RP7n7pghGaOkpybYo26S05vMmDSgYvXkOhXrKkSPEKiwJij7EV4IROnSRzrGreEtC5+jiEPf9ghcOvqOtZNAvaJEo4X5kRMWpxwT8u5e/6dmPP9D3+d9f/fdeLLjfvRz+CO9gQfQvYt4Jhy/G85QAAAAASUVORK5CYII=;" vertex="1" parent="1">
          <mxGeometry x="451.19" y="450.43" width="17.62" height="19.14" as="geometry" />
        </mxCell>
        <mxCell id="QzzDmp1graK9dcGjBhqi-36" value="" style="shape=image;imageAspect=0;aspect=fixed;verticalLabelPosition=bottom;verticalAlign=top;image=data:image/png,iVBORw0KGgoAAAANSUhEUgAAADoAAAA/CAYAAACxdtubAAAAAXNSR0IArs4c6QAAAARnQU1BAACxjwv8YQUAAAAJcEhZcwAAFiUAABYlAUlSJPAAAAXBSURBVGhD7ZtNaBtHFMdfu2QhdlulCH+lsokUXKfxR2sCPrg0hhYbbJMiiAkhhyonH6q7LjnJB93US8jBB0HAGOwcQkrADqbggxNDMaQuiqmgiSGRUnADkdNWhXUo/84ms/7Qzo5217ub1PUPHn6WZkf6a2fee/tWegcM+h/wLv974DkUetAIeI9uUenuTbqz8hP9+lc79X7+FX39ZZTq+LO+ogsNhI2bSERV/UPdY0p4EFcLGh/kH8EI1VaQ6lBMIretZRyLPmsNRujtS6gXCdw2BfEZPtYngglGmy+owl0x/9DLl9z1icP0ctAIRmh3J8W4K6aeQse46xNvyRltokgrd30iGKGfdtMn3BUTomMfctcn3pIzepxa27jrEwEJ7aZO2SZt+Igi3PWLGkL12vQ7Sp4/T+d1S0zQfGmLP+ch7x8jNyt3qzRPEyOd1NTURE2dIzQxX2Lv2AJeOAjYwFQ8DKW6ilEiiOcKcFqxTY1WzbPbRqf4KLtoKOTiiCjVcynoGF9g79yMpdCHmV6zyG1TEO5PY7nCB9tgJm5d6ypO6r/KMtL9ghOwbQq+uGqWaiF0FamYaJIqC/UhtSD6/MyspmLiOZjFUqt8lJyNhRT6QuI59lhLEvf4MQYWQqcwKppAaCq6knMo1ljLj9kKER9P7Aw856Ms0IqYS3ZBFRwrtg5cWePHcjyIulv04NoInTx1mW5IAlVb63HumflAkkS3Sjfo8qmTNHLtgXWgsQMXXIXNpVttahSJ2aI4UC2Oo0F0DMUgXrkairMJRFXRMTXM/tIFns/EERJNUtMUROI5mJoGqymwVCoY34vMYz7GQCsgF49IAo7MQhidsh2MdNgnupTFWHudqxfUWyTZ/K6wrOUwJBhHNMoiwg6VfBaDYUk3QmJqdBjpOfGKkgjdoZKfRnKg2UEw4KaE0Z9exmu5FgGuYRyLr56vYDndj7ApN9Y2mUADW0INKuu3kB6OOhYc6kthYcNi38dSWN1YQKovZH5Oagrq2seQXZILNHAk1EArLiE71o46J5++Gka4XvB4QxvaHAUcVqz0JDB5v2xLoIEroQZa+T4mEz2ulptzU9E8kMT07n3vgH0J3aaSx3RyAM1uUkFNUxEdTuPWujuBBt4INais41Z62F3uqzYWyHoSWSzVKrls4q1QA1ayLWXH0F7nIk2ozRhITsPlCrXEH6EG5btIfXZULEhgRz9O4k6ZH+sx/gjdz571eMkaeLxHdYHukr7ZvAlCBp4I9TfNsLRyxnnerGZfQl0VDq7NWSVUjSuhrkpBlVVADYLH61nF5LAyciPYgVAN5fvuivv/SK27j8u1PVcvixgXnVEljtetMbdXL/YES4QygXNpDAtux9sx0/WoZR9qCLld79D99ahcsKXQjalR1x2G8GDWXNk8zqBXOF7QSmFpKjsoa2nKLIT4jLnZZiH0HpItoklqmKy5bdlKacD46yvvKqya1DZM3/d8FgOx0LUr6BBNIDE1msCsrJphK0R0nG6yRr1WnBV+m0Vue9szOh60O1WKJmbpUeE6XYiweGxBefMP7pn5rfiEe2bUyAW6XnhEs4koe6V9wAVXYXPpql1I1ujVGOy/U68HxyS67ORc20uXIb/3YuRGPtgGty/VC+fRzdG9l5o5V0Fv5iEfvIOlUOu7abtzo328vZtmnXNDfRmsCJaYRKhOBfnJBM6caERjYyNOsOI65+rrbDU6/x1XUHWrxBZaIYdvz55+9d5On/0Gqem85QmoIdQrLKoiwwR7ymsCurVfoqfPuCtifY3y3PWLYISWN8k6uQRDMEKfFOkpd8X8QvmfuesTgZ3RP7n7pghGaOkpybYo26S05vMmDSgYvXkOhXrKkSPEKiwJij7EV4IROnSRzrGreEtC5+jiEPf9ghcOvqOtZNAvaJEo4X5kRMWpxwT8u5e/6dmPP9D3+d9f/fdeLLjfvRz+CO9gQfQvYt4Jhy/G85QAAAAASUVORK5CYII=;" vertex="1" parent="1">
          <mxGeometry x="331.19" y="450.43" width="17.62" height="19.14" as="geometry" />
        </mxCell>
        <mxCell id="QzzDmp1graK9dcGjBhqi-38" value="" style="shape=image;imageAspect=0;aspect=fixed;verticalLabelPosition=bottom;verticalAlign=top;image=data:image/png,iVBORw0KGgoAAAANSUhEUgAAADoAAAA/CAYAAACxdtubAAAAAXNSR0IArs4c6QAAAARnQU1BAACxjwv8YQUAAAAJcEhZcwAAFiUAABYlAUlSJPAAAAXBSURBVGhD7ZtNaBtHFMdfu2QhdlulCH+lsokUXKfxR2sCPrg0hhYbbJMiiAkhhyonH6q7LjnJB93US8jBB0HAGOwcQkrADqbggxNDMaQuiqmgiSGRUnADkdNWhXUo/84ms/7Qzo5217ub1PUPHn6WZkf6a2fee/tWegcM+h/wLv974DkUetAIeI9uUenuTbqz8hP9+lc79X7+FX39ZZTq+LO+ogsNhI2bSERV/UPdY0p4EFcLGh/kH8EI1VaQ6lBMIretZRyLPmsNRujtS6gXCdw2BfEZPtYngglGmy+owl0x/9DLl9z1icP0ctAIRmh3J8W4K6aeQse46xNvyRltokgrd30iGKGfdtMn3BUTomMfctcn3pIzepxa27jrEwEJ7aZO2SZt+Igi3PWLGkL12vQ7Sp4/T+d1S0zQfGmLP+ch7x8jNyt3qzRPEyOd1NTURE2dIzQxX2Lv2AJeOAjYwFQ8DKW6ilEiiOcKcFqxTY1WzbPbRqf4KLtoKOTiiCjVcynoGF9g79yMpdCHmV6zyG1TEO5PY7nCB9tgJm5d6ypO6r/KMtL9ghOwbQq+uGqWaiF0FamYaJIqC/UhtSD6/MyspmLiOZjFUqt8lJyNhRT6QuI59lhLEvf4MQYWQqcwKppAaCq6knMo1ljLj9kKER9P7Aw856Ms0IqYS3ZBFRwrtg5cWePHcjyIulv04NoInTx1mW5IAlVb63HumflAkkS3Sjfo8qmTNHLtgXWgsQMXXIXNpVttahSJ2aI4UC2Oo0F0DMUgXrkairMJRFXRMTXM/tIFns/EERJNUtMUROI5mJoGqymwVCoY34vMYz7GQCsgF49IAo7MQhidsh2MdNgnupTFWHudqxfUWyTZ/K6wrOUwJBhHNMoiwg6VfBaDYUk3QmJqdBjpOfGKkgjdoZKfRnKg2UEw4KaE0Z9exmu5FgGuYRyLr56vYDndj7ApN9Y2mUADW0INKuu3kB6OOhYc6kthYcNi38dSWN1YQKovZH5Oagrq2seQXZILNHAk1EArLiE71o46J5++Gka4XvB4QxvaHAUcVqz0JDB5v2xLoIEroQZa+T4mEz2ulptzU9E8kMT07n3vgH0J3aaSx3RyAM1uUkFNUxEdTuPWujuBBt4INais41Z62F3uqzYWyHoSWSzVKrls4q1QA1ayLWXH0F7nIk2ozRhITsPlCrXEH6EG5btIfXZULEhgRz9O4k6ZH+sx/gjdz571eMkaeLxHdYHukr7ZvAlCBp4I9TfNsLRyxnnerGZfQl0VDq7NWSVUjSuhrkpBlVVADYLH61nF5LAyciPYgVAN5fvuivv/SK27j8u1PVcvixgXnVEljtetMbdXL/YES4QygXNpDAtux9sx0/WoZR9qCLld79D99ahcsKXQjalR1x2G8GDWXNk8zqBXOF7QSmFpKjsoa2nKLIT4jLnZZiH0HpItoklqmKy5bdlKacD46yvvKqya1DZM3/d8FgOx0LUr6BBNIDE1msCsrJphK0R0nG6yRr1WnBV+m0Vue9szOh60O1WKJmbpUeE6XYiweGxBefMP7pn5rfiEe2bUyAW6XnhEs4koe6V9wAVXYXPpql1I1ujVGOy/U68HxyS67ORc20uXIb/3YuRGPtgGty/VC+fRzdG9l5o5V0Fv5iEfvIOlUOu7abtzo328vZtmnXNDfRmsCJaYRKhOBfnJBM6caERjYyNOsOI65+rrbDU6/x1XUHWrxBZaIYdvz55+9d5On/0Gqem85QmoIdQrLKoiwwR7ymsCurVfoqfPuCtifY3y3PWLYISWN8k6uQRDMEKfFOkpd8X8QvmfuesTgZ3RP7n7pghGaOkpybYo26S05vMmDSgYvXkOhXrKkSPEKiwJij7EV4IROnSRzrGreEtC5+jiEPf9ghcOvqOtZNAvaJEo4X5kRMWpxwT8u5e/6dmPP9D3+d9f/fdeLLjfvRz+CO9gQfQvYt4Jhy/G85QAAAAASUVORK5CYII=;" vertex="1" parent="1">
          <mxGeometry x="291.19" y="450.43" width="17.62" height="19.14" as="geometry" />
        </mxCell>
      </root>
    </mxGraphModel>
  </diagram>
</mxfile>
